<svg id="_x33_0" enable-background="new 0 0 64 64" height="512" viewBox="0 0 64 64" width="512" xmlns="http://www.w3.org/2000/svg"><g><path d="m63 54c0-3.453-1.602-6.535-4.099-8.554l-1.089-4.901c1.293-.663 2.188-1.995 2.188-3.545v-2c0-2.206-1.794-4-4-4h-.309l-.367-1.651c-.307-1.383-1.512-2.349-2.928-2.349h-1.396v-2h1.559c1.293 0 2.437-.824 2.846-2.051l.304-.913c.193-.58.291-1.184.291-1.795 0-.985-.258-1.959-.748-2.815l-2.232-3.906c-.888-1.555-2.552-2.52-4.341-2.52h-1.679v-2c0-2.206-1.794-4-4-4h-.101c-.465-2.279-2.485-4-4.899-4-2.757 0-5 2.243-5 5s2.243 5 5 5c2.414 0 4.434-1.721 4.899-4h.101c1.103 0 2 .897 2 2v2.184c-1.161.414-2 1.514-2 2.816v1h-5c-1.654 0-3 1.346-3 3s1.346 3 3 3h5v2c0 1.103.897 2 2 2v2.101c-2.279.465-4 2.484-4 4.899v1.657c0 .92-.623 1.718-1.515 1.941l-2.485.621v7.176c0 1.956.442 3.864 1.284 5.605h-9.259c.053-.631.22-1.253.503-1.819l.472-.945c.654-1.309 1-2.773 1-4.236 0-1.018-.178-2.034-.5-3h.5c1.103 0 2-.897 2-2v-2c0-1.103-.897-2-2-2h-.051c-.38-4.964-3.549-9.157-7.949-10.997v-2.003c0-1.654-1.346-3-3-3h-4c-1.654 0-3 1.346-3 3v2.003c-4.4 1.84-7.569 6.033-7.949 10.997h-.051c-1.103 0-2 .897-2 2v2c0 1.103.897 2 2 2h.25c-.153.451-.25.924-.25 1.414v.586h-1c-1.654 0-3 1.346-3 3v2c0 1.654 1.346 3 3 3h.214c-.77 1.502-1.214 3.199-1.214 5v1h2.059c.5 4.493 4.317 8 8.941 8s8.442-3.507 8.941-8h20.118c.5 4.493 4.317 8 8.941 8s8.442-3.507 8.941-8h2.059zm-25-45c-1.654 0-3-1.346-3-3s1.346-3 3-3c1.302 0 2.402.839 2.816 2h-1.816v2h1.816c-.414 1.161-1.514 2-2.816 2zm22.945 44h-17.89c.499-4.494 4.32-8 8.945-8s8.446 3.506 8.945 8zm-6.129 2c-.414 1.161-1.514 2-2.816 2s-2.402-.839-2.816-2zm3.184-20v2c0 1.103-.897 2-2 2h-1c-.551 0-1-.448-1-1v-4c0-.552.449-1 1-1h1c1.103 0 2 .897 2 2zm-4.493-12.684c-.136.409-.517.684-.948.684h-7.559v-2h8.911c-.029.135-.055.271-.099.403zm-8.507-4.316c0 .551-.449 1-1 1h-3.184c.112-.314.184-.648.184-1s-.072-.686-.184-1h3.184c.551 0 1 .449 1 1zm1-5h2.679c1.074 0 2.072.579 2.605 1.512l2.232 3.907c.106.185.189.382.26.582h-6.961c.113-.315.185-.649.185-1.001 0-1.302-.839-2.402-2-2.816v-1.184c0-.551.449-1 1-1zm-9 5c0-.551.449-1 1-1s1 .449 1 1-.449 1-1 1-1-.449-1-1zm12 7v2h-2v-2zm-6 8.657v-1.657c0-1.654 1.346-3 3-3h6.396c.472 0 .874.322.977.783l.338 1.521c-1.009.484-1.711 1.505-1.711 2.696v4c0 1.654 1.346 3 3 3h.865l.664 2.987c-1.384-.628-2.914-.987-4.529-.987-3.73 0-7.023 1.872-9.013 4.719.001-.045.013-.088.013-.133v-8.35c0-1.071-.379-2.093-1.039-2.907.646-.715 1.039-1.652 1.039-2.672zm-4 4.124.97-.243c.103-.026.198-.068.297-.102.46.482.732 1.121.732 1.8v8.35c0 .509-.162.991-.452 1.397-1.01-1.691-1.547-3.609-1.547-5.588zm-24-17.781c0-.551.449-1 1-1h4c.551 0 1 .449 1 1v1.363c-.965-.229-1.966-.363-3-.363s-2.035.134-3 .363zm3 3c5.728 0 10.442 4.402 10.949 10h-21.898c.507-5.598 5.221-10 10.949-10zm-13 12h26l.001 2h-26.001zm23.357 4c.414.944.643 1.97.643 3 0 1.154-.273 2.31-.789 3.342l-.472.944c-.421.843-.658 1.773-.714 2.714h-3.232c-1.824-3.558-5.527-6-9.793-6-2.657 0-5.097.947-7 2.521v-5.107c0-.516.168-1.004.466-1.414zm-23.302 14c.499-4.494 4.32-8 8.945-8s8.446 3.506 8.945 8zm11.761 2c-.414 1.161-1.514 2-2.816 2s-2.402-.839-2.816-2zm-13.816-9v-2c0-.552.449-1 1-1h1v4h-1c-.551 0-1-.448-1-1zm11 15c-3.519 0-6.432-2.614-6.92-6h2.021c.465 2.279 2.484 4 4.899 4s4.434-1.721 4.899-4h2.021c-.488 3.386-3.401 6-6.92 6zm10.955-8c-.062-.687-.189-1.355-.372-2h16.835c-.183.645-.31 1.313-.372 2zm27.045 8c-3.519 0-6.432-2.614-6.92-6h2.021c.465 2.279 2.484 4 4.899 4s4.434-1.721 4.899-4h2.021c-.488 3.386-3.401 6-6.92 6z"/><path d="m14.5 27.936c1.059-.612 2.27-.936 3.5-.936v-2c-1.582 0-3.138.417-4.5 1.205z"/><path d="m9.655 30.625 1.854.751c.255-.629.6-1.218 1.027-1.75l-1.561-1.251c-.548.683-.993 1.44-1.32 2.25z"/><path d="m8.105 22.447 1.789-.895-.411-.821c-.316-.632-.483-1.341-.483-2.049 0-1.836 1.09-3.489 2.778-4.213l.895-.384c2.021-.866 3.327-2.847 3.327-5.045 0-2.258-1.354-4.259-3.451-5.097l-.292-.116c-.763-.306-1.257-1.035-1.257-1.858v-.969h-2v.969c0 1.645.987 3.103 2.515 3.714l.292.117c1.332.533 2.193 1.804 2.193 3.24 0 1.398-.83 2.657-2.115 3.208l-.895.384c-2.424 1.037-3.99 3.412-3.99 6.05 0 1.017.24 2.036.695 2.945z"/><path d="m21.458 7.99 1.088.408c2.066.775 3.454 2.777 3.454 4.983 0 1.421-.554 2.758-1.559 3.763l-.148.148 1.414 1.414.148-.148c1.383-1.382 2.145-3.221 2.145-5.177 0-3.035-1.909-5.79-4.751-6.856l-1.089-.408c-1.292-.484-2.16-1.737-2.16-3.117h-2c0 2.209 1.39 4.214 3.458 4.99z"/><path d="m17.95 15.464c1.322-1.322 2.05-3.08 2.05-4.95v-.514h-2v.515c0 1.335-.52 2.591-1.464 3.536l-.243.243 1.414 1.414z"/></g></svg>