<svg height="496pt" viewBox="-32 0 496 496" width="496pt" xmlns="http://www.w3.org/2000/svg"><path d="m401.320312 0h-3.96875c-4.734374 0-9.472656 1.121094-13.71875 3.230469-50.839843 25.425781-95.503906 60.105469-132.753906 103.074219l-41.085937 47.398437-3.089844-6.183594c-6.015625-12.03125-18.117187-19.519531-31.582031-19.519531h-3.808594c-5.160156 0-10.007812-2.007812-13.65625-5.65625-6.671875-6.671875-15.535156-10.34375-24.96875-10.34375h-1.375c-9.433594 0-18.296875 3.671875-24.96875 10.34375-3.648438 3.648438-8.503906 5.65625-13.65625 5.65625h-3.808594c-13.472656 0-25.566406 7.488281-31.582031 19.519531-6.082031 12.152344-9.296875 25.769531-9.296875 39.375v85.105469h-48v8c0 61.808594 30.289062 118.265625 81.289062 152.585938-.769531 2.351562-1.289062 4.8125-1.289062 7.414062 0 3.785156.960938 7.3125 2.527344 10.503906-15.414063 5.558594-26.527344 20.191406-26.527344 37.496094v8h256v-8c0-17.304688-11.113281-31.9375-26.519531-37.496094 1.558593-3.191406 2.519531-6.71875 2.519531-10.503906 0-2.609375-.519531-5.0625-1.289062-7.414062 51-34.3125 81.289062-90.769532 81.289062-152.585938v-8h-10.839844c16.34375-13.207031 26.839844-33.390625 26.839844-56v-8h-24c-14.886719 0-28.726562 4.535156-40.214844 12.304688.078125-1.433594.214844-2.847657.214844-4.304688v-40h-8c-39.703125 0-72 32.296875-72 72v24h-80v-16.375c42.472656-3.761719 67.175781-36.855469 78.398438-57.066406 8.378906-15.070313 19.449218-30.09375 32.898437-44.664063l20.464844-22.167969c31.765625-34.414062 72.4375-59.125 117.628906-71.453124 13.3125-3.625 22.609375-15.792969 22.609375-29.59375 0-16.910157-13.769531-30.679688-30.679688-30.679688zm-312.441406 144h3.808594c9.433594 0 18.296875-3.671875 24.96875-10.34375 3.648438-3.648438 8.503906-5.65625 13.65625-5.65625h1.375c5.160156 0 10.007812 2.007812 13.65625 5.65625 6.671875 6.671875 15.535156 10.34375 24.96875 10.34375h3.808594c7.367187 0 13.984375 4.097656 17.269531 10.679688l2.664063 5.320312h-125.726563c.71875-1.792969 1.414063-3.59375 2.28125-5.320312 3.285156-6.582032 9.902344-10.679688 17.269531-10.679688zm15.121094 48c-13.230469 0-24 10.769531-24 24v72c0 4.414062-3.585938 8-8 8s-8-3.585938-8-8v-101.105469c0-3.65625.382812-7.285156.945312-10.894531h79.054688v184c0 4.414062-3.585938 8-8 8s-8-3.585938-8-8v-144c0-13.230469-10.769531-24-24-24zm8 80h-16v-16h16zm0-32h-16v-24c0-4.414062 3.585938-8 8-8s8 3.585938 8 8zm-16 200c0-4.414062 3.585938-8 8-8h160c4.414062 0 8 3.585938 8 8s-3.585938 8-8 8h-160c-4.414062 0-8-3.585938-8-8zm198.632812 40h-221.265624c3.304687-9.3125 12.199218-16 22.632812-16h176c10.433594 0 19.328125 6.6875 22.632812 16zm72.800782-256c-3.890625 27.105469-27.265625 48-55.433594 48h-7.433594c3.890625-27.105469 27.265625-48 55.433594-48zm-111.433594 24c0-28.167969 20.894531-51.535156 48-55.433594v23.433594c0 28.167969-20.894531 51.535156-48 55.433594zm-16 40h111.816406c-2.488281 53.609375-30 102.054688-74.839844 131.863281-3.753906-2.421875-8.191406-3.863281-12.976562-3.863281h-160c-4.785156 0-9.222656 1.441406-12.976562 3.863281-44.839844-29.816406-72.34375-78.253906-74.839844-131.863281h31.816406c0 13.230469 10.769531 24 24 24s24-10.769531 24-24h16v72c0 13.230469 10.769531 24 24 24s24-10.769531 24-24v-72zm165.175781-243.167969c-48.097656 13.128907-91.375 39.414063-125.167969 76.03125l-20.464843 22.167969c-14.320313 15.503906-26.144531 31.570312-35.136719 47.753906-11.550781 20.789063-31.886719 45.238282-64.414062 48.75v-63.535156h40.695312c6.960938 0 13.570312-3.023438 18.136719-8.28125l44.152343-50.925781c35.855469-41.378907 78.855469-74.769531 127.808594-99.242188 2.03125-1.015625 4.304688-1.550781 6.566406-1.550781h3.96875c8.09375 0 14.679688 6.585938 14.679688 14.679688 0 6.601562-4.449219 12.425781-10.824219 14.152343zm0 0"/><path d="m332.265625 313.761719-15.609375-3.515625c-1.121094 4.984375-2.535156 9.945312-4.207031 14.753906l15.109375 5.265625c1.875-5.394531 3.457031-10.9375 4.707031-16.503906zm0 0"/><path d="m320.304688 347.542969-14.34375-7.09375c-11.234376 22.71875-28.761719 41.863281-50.664063 55.390625l8.40625 13.609375c24.464844-15.089844 44.03125-36.496094 56.601563-61.90625zm0 0"/><path d="m76.6875 56c2.136719 2.144531 3.3125 4.976562 3.3125 8s-1.175781 5.855469-3.3125 8l-10.34375 10.34375 11.3125 11.3125 10.34375-10.34375c5.160156-5.152344 8-12.015625 8-19.3125s-2.839844-14.160156-8-19.3125l-4.6875-4.6875c-2.136719-2.144531-3.3125-4.976562-3.3125-8s1.175781-5.855469 3.3125-8l10.34375-10.34375-11.3125-11.3125-10.34375 10.34375c-5.160156 5.152344-8 12.015625-8 19.3125s2.839844 14.160156 8 19.3125zm0 0"/><path d="m124.6875 56c2.136719 2.144531 3.3125 4.976562 3.3125 8s-1.175781 5.855469-3.3125 8l-10.34375 10.34375 11.3125 11.3125 10.34375-10.34375c5.160156-5.152344 8-12.015625 8-19.3125s-2.839844-14.160156-8-19.3125l-4.6875-4.6875c-2.136719-2.144531-3.3125-4.976562-3.3125-8s1.175781-5.855469 3.3125-8l10.34375-10.34375-11.3125-11.3125-10.34375 10.34375c-5.160156 5.152344-8 12.015625-8 19.3125s2.839844 14.160156 8 19.3125zm0 0"/><path d="m172.6875 56c2.136719 2.144531 3.3125 4.976562 3.3125 8s-1.175781 5.855469-3.3125 8l-10.34375 10.34375 11.3125 11.3125 10.34375-10.34375c5.160156-5.152344 8-12.015625 8-19.3125s-2.839844-14.160156-8-19.3125l-4.6875-4.6875c-2.136719-2.144531-3.3125-4.976562-3.3125-8s1.175781-5.855469 3.3125-8l10.34375-10.34375-11.3125-11.3125-10.34375 10.34375c-5.160156 5.152344-8 12.015625-8 19.3125s2.839844 14.160156 8 19.3125zm0 0"/></svg>